<svg id="图层_1" data-name="图层 1" xmlns="http://www.w3.org/2000/svg" viewBox="0 0 394.34 126.19"><defs><style>.cls-1{fill:none;}.cls-2{fill:#fff;}</style></defs><path class="cls-1" d="M296.3,219.81c-.43,0-.86.06-1.2.08-.49.65-.08,1.46-.64,2a3.56,3.56,0,0,1-1.73-.08c-.1-.59-.2-1.17-.31-1.78a3.84,3.84,0,0,0-.62-.13h-9.5a2.76,2.76,0,0,0-.53.11c-.49,1.54-.43,2,.39,3,.22.27.45.54.68.8,1.8,2.1,3.58,4.22,5.41,6.3a3,3,0,0,1,.81,2.06q.13,7,.33,14.07a3.08,3.08,0,0,1-.59,2c-.36.49-.68,1-1,1.53-.15.24-.27.5-.43.8l2,1.84c.23,2,.22,1.95-.77,3.48a5.16,5.16,0,0,0-.93,1.61c.66.62,1.32,1.22,1.95,1.82,0,.3,0,.56.07.81a3.27,3.27,0,0,1-.65,2.46c-.4.51-.73,1.09-1.07,1.61a.54.54,0,0,0,.07.19c.55.58,1.1,1.15,1.68,1.74a5,5,0,0,1,.08.59c.07,1.94.34,1.54-.9,3.42-.24.36-.67.64-.58,1.26L290,273c0,.44,0,.9.08,1.36a3.49,3.49,0,0,1-.72,2.59c-.3.38-.53.83-.91,1.42a7,7,0,0,1,.67.47c1.2,1,1,.84,1.16,2.62a3.37,3.37,0,0,1-.67,2.45c-.27.35-.49.75-.75,1.14.41.79,1.16,1.14,1.72,1.69.06.26.11.51.19.75a2.4,2.4,0,0,1-.4,2.45,17.28,17.28,0,0,0-.94,1.47l2.36,1.13c.12.52.24,1,.35,1.52.47,2.26.94,4.53,1.42,6.79,0,.18.06.42.42.33.05-.21.13-.44.18-.69.58-2.77,1.16-5.53,1.72-8.3.5-2.47,1-4.95,1.46-7.42a3.84,3.84,0,0,1,.5-1.09,7.45,7.45,0,0,0,1-1.76,5.34,5.34,0,0,0-.64-.62,1.68,1.68,0,0,1-.76-1.7,3.2,3.2,0,0,0,0-.62,3.62,3.62,0,0,1,.78-2.57,3.74,3.74,0,0,0,.88-1.62,5.19,5.19,0,0,0-.65-.6,1.75,1.75,0,0,1-.81-1.84,4,4,0,0,0,0-.77,2.84,2.84,0,0,1,.57-1.86,7.35,7.35,0,0,0,1.18-2c-.38-.33-.77-.64-1.11-1a1.38,1.38,0,0,1-.46-.74,4.56,4.56,0,0,1,.59-3.24,7.14,7.14,0,0,0,1.25-2.11L298,259.15c-.16-2.26-.16-2.26.95-3.95.19-.29.4-.58.58-.89s.23-.53.36-.81c-.48-.41-.91-.75-1.29-1.14a1.38,1.38,0,0,1-.44-.76,3.69,3.69,0,0,1,.56-2.77,10.32,10.32,0,0,0,1.45-2.32,9.8,9.8,0,0,0-1.34-1.26c-.2-.21-.5-.46-.51-.71a3.5,3.5,0,0,1,.41-2.65c.62-.79,1.12-1.67,1.75-2.64-.58-.54-1-1-1.45-1.35a1.57,1.57,0,0,1-.57-1.35c0-1,0-2,.06-2.94.09-3.1-.28-2.11,1.61-4.35s3.6-4.2,5.39-6.32a2.3,2.3,0,0,0,.59-1,3.7,3.7,0,0,0-.14-2C302.71,219.73,299.5,219.84,296.3,219.81Z" transform="translate(-157.17 -197.68)"/><polygon class="cls-1" points="120.42 22.66 107.45 22.66 88.5 59.57 88.24 59.57 88.24 22.66 75.27 22.66 75.27 103.53 88.24 103.53 88.24 79.34 95.24 67.64 109.99 103.53 123.73 103.53 102.74 55.03 120.42 22.66"/><polygon class="cls-1" points="187.2 71.39 186.94 71.39 167.36 22.66 154.89 22.66 154.89 103.53 167.87 103.53 167.87 54.92 168.12 54.92 187.96 103.53 200.18 103.53 200.18 22.66 187.2 22.66 187.2 71.39"/><path class="cls-1" d="M388.46,219.65c-12.09,0-21.75,8.07-21.75,19.31v43.62c0,11.36,9.79,19.31,21.75,19.31s21.75-8.07,21.75-19.31v-25.9H386.93V266.9h10.31v15.45c0,5-3.82,7.95-8.78,7.95s-8.78-2.95-8.78-7.95V239.19c0-5,3.82-7.95,8.78-7.95,3.56,0,8.78,1.48,8.78,8.63v3.64h13v-3.75C410.21,224.77,397.24,219.65,388.46,219.65Z" transform="translate(-157.17 -197.68)"/><path class="cls-1" d="M467.85,223.52a23.11,23.11,0,0,0-13.23-3.87c-14,0-22.26,8.86-22.26,22.15,0,10.34,3.44,16.36,11.83,19.88,4.58,1.93,9.93,3.63,13.36,5,5,2,5.73,4.31,5.73,11.58a24.61,24.61,0,0,1-.64,7c-1.27,4-4.33,5-8.78,5-6.61,0-9.16-4.2-9.16-8.18v-3.74h-13V282c0,14.77,13.1,19.88,22.13,19.88,14.38,0,22.39-7.5,22.39-23.86,0-10.9-1.53-17.6-13-21.8-2.17-.8-6.11-2.16-9-3.18-7.37-2.62-8.9-3.75-8.9-11.25,0-7.27,3.05-10.56,8.78-10.56,5.34,0,9.16,2.84,9.16,10.22v2.16h13V238.4C476.25,233.62,474.6,228.29,467.85,223.52Z" transform="translate(-157.17 -197.68)"/><polygon class="cls-1" points="258.99 42.65 271.96 34.25 271.96 22.66 258.99 22.66 258.99 42.65"/><path class="cls-2" d="M157.17,197.68V323.87H551.52V197.68Zm110,103.53-14.75-35.9-7,11.7v24.2h-13V220.34h13v36.91h.26l19-36.91h13l-17.68,32.37,21,48.5Zm38.93-79.29a2.3,2.3,0,0,1-.59,1c-1.79,2.12-3.6,4.2-5.39,6.32s-1.52,1.25-1.61,4.35c0,1,0,2-.06,2.94a1.57,1.57,0,0,0,.57,1.35c.45.39.87.81,1.45,1.35-.63,1-1.13,1.85-1.75,2.64a3.5,3.5,0,0,0-.41,2.65c0,.25.31.5.51.71a9.8,9.8,0,0,1,1.34,1.26,10.32,10.32,0,0,1-1.45,2.32,3.69,3.69,0,0,0-.56,2.77,1.38,1.38,0,0,0,.44.76c.38.39.81.73,1.29,1.14-.13.28-.22.56-.36.81s-.39.6-.58.89c-1.11,1.69-1.11,1.69-.95,3.95l1.62,1.48a7.14,7.14,0,0,1-1.25,2.11,4.56,4.56,0,0,0-.59,3.24,1.38,1.38,0,0,0,.46.74c.34.35.73.66,1.11,1a7.35,7.35,0,0,1-1.18,2,2.84,2.84,0,0,0-.57,1.86,4,4,0,0,1,0,.77,1.75,1.75,0,0,0,.81,1.84,5.19,5.19,0,0,1,.65.6,3.74,3.74,0,0,1-.88,1.62,3.62,3.62,0,0,0-.78,2.57,3.2,3.2,0,0,1,0,.62,1.68,1.68,0,0,0,.76,1.7,5.34,5.34,0,0,1,.64.62,7.45,7.45,0,0,1-1,1.76,3.84,3.84,0,0,0-.5,1.09c-.5,2.47-1,5-1.46,7.42-.56,2.77-1.14,5.53-1.72,8.3-.05.25-.13.48-.18.69-.36.09-.38-.15-.42-.33-.48-2.26-.95-4.53-1.42-6.79-.11-.5-.23-1-.35-1.52l-2.36-1.13a17.28,17.28,0,0,1,.94-1.47,2.4,2.4,0,0,0,.4-2.45c-.08-.24-.13-.49-.19-.75-.56-.55-1.31-.9-1.72-1.69.26-.39.48-.79.75-1.14a3.37,3.37,0,0,0,.67-2.45c-.12-1.78,0-1.58-1.16-2.62a7,7,0,0,0-.67-.47c.38-.59.61-1,.91-1.42a3.49,3.49,0,0,0,.72-2.59c0-.46-.06-.92-.08-1.36l-1.62-1.54c-.09-.62.34-.9.58-1.26,1.24-1.88,1-1.48.9-3.42a5,5,0,0,0-.08-.59c-.58-.59-1.13-1.16-1.68-1.74a.54.54,0,0,1-.07-.19c.34-.52.67-1.1,1.07-1.61a3.27,3.27,0,0,0,.65-2.46c0-.25,0-.51-.07-.81-.63-.6-1.29-1.2-1.95-1.82a5.16,5.16,0,0,1,.93-1.61c1-1.53,1-1.52.77-3.48l-2-1.84c.16-.3.28-.56.43-.8.32-.52.64-1,1-1.53a3.08,3.08,0,0,0,.59-2q-.19-7-.33-14.07a3,3,0,0,0-.81-2.06c-1.83-2.08-3.61-4.2-5.41-6.3-.23-.26-.46-.53-.68-.8-.82-1-.88-1.47-.39-3a2.76,2.76,0,0,1,.53-.11h9.5a3.84,3.84,0,0,1,.62.13c.11.61.21,1.19.31,1.78a3.56,3.56,0,0,0,1.73.08c.56-.58.15-1.39.64-2,.34,0,.77-.08,1.2-.08,3.2,0,6.41-.08,9.65.07A3.7,3.7,0,0,1,306.09,221.92Zm51.26,79.29H345.14l-19.85-48.62H325v48.62h-13V220.34h12.47l19.59,48.72h.25V220.34h13Zm52.86-57.7h-13v-3.64c0-7.15-5.22-8.63-8.78-8.63-5,0-8.78,2.95-8.78,7.95v43.16c0,5,3.82,7.95,8.78,7.95s8.78-2.95,8.78-7.95V266.9H386.93V256.68h23.28v25.9c0,11.24-9.67,19.31-21.75,19.31s-21.75-7.95-21.75-19.31V239c0-11.24,9.66-19.31,21.75-19.31,8.78,0,21.75,5.12,21.75,20.11Zm18.93-11.59-13,8.41v-20h13Zm47.11,11.7h-13v-2.16c0-7.38-3.82-10.22-9.16-10.22-5.73,0-8.78,3.29-8.78,10.56,0,7.5,1.53,8.63,8.9,11.25,2.93,1,6.87,2.38,9,3.18,11.44,4.2,13,10.9,13,21.8,0,16.36-8,23.86-22.39,23.86-9,0-22.13-5.11-22.13-19.88v-3.63h13v3.74c0,4,2.55,8.18,9.16,8.18,4.45,0,7.51-1,8.78-5a24.61,24.61,0,0,0,.64-7c0-7.27-.77-9.54-5.73-11.58-3.43-1.37-8.78-3.07-13.36-5-8.39-3.52-11.83-9.54-11.83-19.88,0-13.29,8.27-22.15,22.26-22.15a23.11,23.11,0,0,1,13.23,3.87c6.75,4.77,8.4,10.1,8.4,14.88Z" transform="translate(-157.17 -197.68)"/></svg>